<svg width="561.906" height="95.605" viewBox="0 0 561.906 95.605" xmlns="http://www.w3.org/2000/svg"><g id="svgGroup" strokeLinecap="round" fillRule="evenodd" font-size="9pt" stroke="#000" strokeWidth="0.25mm" fill="black" style="stroke:#000;strokeWidth:0.25mm;fill:black"><path d="M 182.838 36.363 L 181.443 36.456 L 180.606 33.759 A 88.781 88.781 0 0 0 183.996 32.87 Q 187.979 31.734 190.185 30.597 Q 193.081 29.105 193.576 28.856 A 14.419 14.419 0 0 1 193.626 28.83 A 12.249 12.249 0 0 1 194.043 28.837 Q 194.87 28.865 195.021 29.016 A 0.746 0.746 0 0 1 195.151 29.328 Q 195.427 30.413 195.579 34.968 Q 200.434 31.448 204.695 30.225 A 15.819 15.819 0 0 1 209.064 29.574 A 17.897 17.897 0 0 1 213.18 30.016 A 10.471 10.471 0 0 1 220.224 35.154 A 38.28 38.28 0 0 1 225.23 32.093 Q 230.233 29.574 234.732 29.574 A 18.831 18.831 0 0 1 240.14 30.282 Q 248.217 32.707 248.217 43.431 L 248.217 64.077 A 5.211 5.211 0 0 0 248.273 64.869 Q 248.427 65.867 249.007 66.321 A 1.568 1.568 0 0 0 249.054 66.356 A 2.271 2.271 0 0 0 249.579 66.621 Q 250.473 66.958 252.347 67.162 A 34.79 34.79 0 0 0 253.146 67.239 L 253.983 70.959 L 244.869 70.68 L 234.825 70.959 L 234.081 67.239 A 92.397 92.397 0 0 0 235.629 67.098 Q 238.711 66.789 239.429 66.449 A 1.225 1.225 0 0 0 239.982 65.892 Q 240.312 65.271 240.312 64.077 L 240.312 46.593 A 24.187 24.187 0 0 0 240.167 43.841 Q 239.821 40.836 238.655 39.095 A 5.736 5.736 0 0 0 237.987 38.27 A 7.131 7.131 0 0 0 235.245 36.568 Q 233.373 35.898 230.78 35.898 A 15.485 15.485 0 0 0 222.696 38.206 A 19.372 19.372 0 0 0 221.526 38.967 A 23.899 23.899 0 0 1 221.946 42.076 A 20.531 20.531 0 0 1 221.991 43.431 L 221.991 64.077 A 5.211 5.211 0 0 0 222.047 64.869 Q 222.201 65.867 222.781 66.321 A 1.568 1.568 0 0 0 222.828 66.356 A 2.271 2.271 0 0 0 223.353 66.621 Q 224.247 66.958 226.121 67.162 A 34.79 34.79 0 0 0 226.92 67.239 L 227.757 70.959 L 218.643 70.68 L 208.599 70.959 L 207.855 67.239 A 92.397 92.397 0 0 0 209.403 67.098 Q 212.485 66.789 213.203 66.449 A 1.225 1.225 0 0 0 213.756 65.892 Q 214.086 65.271 214.086 64.077 L 214.086 46.593 A 24.755 24.755 0 0 0 213.944 43.838 Q 213.516 40.037 211.808 38.223 A 7.24 7.24 0 0 0 208.566 36.272 Q 207.412 35.922 206.019 35.834 A 15.21 15.21 0 0 0 205.065 35.805 A 17.133 17.133 0 0 0 199.925 36.629 Q 197.889 37.268 195.782 38.4 A 28.76 28.76 0 0 0 195.765 38.409 L 195.765 64.077 A 5.211 5.211 0 0 0 195.821 64.869 Q 195.975 65.867 196.555 66.321 A 1.568 1.568 0 0 0 196.602 66.356 A 2.271 2.271 0 0 0 197.127 66.621 Q 198.021 66.958 199.895 67.162 A 34.79 34.79 0 0 0 200.694 67.239 L 201.531 70.959 L 192.417 70.68 L 182.373 70.959 L 181.629 67.239 A 92.397 92.397 0 0 0 183.177 67.098 Q 186.259 66.789 186.977 66.449 A 1.225 1.225 0 0 0 187.53 65.892 Q 187.86 65.271 187.86 64.077 L 187.86 42.315 A 14.649 14.649 0 0 0 187.784 40.769 Q 187.558 38.642 186.651 37.665 A 3.691 3.691 0 0 0 185.16 36.712 Q 184.186 36.363 182.838 36.363 Z M 288.207 36.363 L 286.812 36.456 L 285.975 33.759 A 88.781 88.781 0 0 0 289.365 32.87 Q 293.348 31.734 295.554 30.597 Q 298.45 29.105 298.945 28.856 A 14.419 14.419 0 0 1 298.995 28.83 A 12.249 12.249 0 0 1 299.412 28.837 Q 300.239 28.865 300.39 29.016 A 0.746 0.746 0 0 1 300.52 29.328 Q 300.796 30.413 300.948 34.968 Q 305.412 32.271 308.807 30.923 Q 312.201 29.574 316.2 29.574 A 17.248 17.248 0 0 1 321.472 30.31 Q 327.079 32.11 328.579 38.312 A 21.834 21.834 0 0 1 329.127 43.431 L 329.127 64.077 A 5.211 5.211 0 0 0 329.183 64.869 Q 329.337 65.867 329.917 66.321 A 1.568 1.568 0 0 0 329.964 66.356 A 2.271 2.271 0 0 0 330.489 66.621 Q 331.383 66.958 333.257 67.162 A 34.79 34.79 0 0 0 334.056 67.239 L 334.893 70.959 L 325.779 70.68 L 315.735 70.959 L 314.991 67.239 A 92.397 92.397 0 0 0 316.539 67.098 Q 319.621 66.789 320.339 66.449 A 1.225 1.225 0 0 0 320.892 65.892 Q 321.222 65.271 321.222 64.077 L 321.222 46.593 A 24.11 24.11 0 0 0 321.077 43.844 Q 320.737 40.893 319.602 39.183 A 5.603 5.603 0 0 0 318.897 38.316 A 7.014 7.014 0 0 0 316.346 36.727 Q 314.375 35.991 311.55 35.991 A 21.564 21.564 0 0 0 305.291 36.958 A 28.637 28.637 0 0 0 301.134 38.595 L 301.134 64.077 A 5.211 5.211 0 0 0 301.19 64.869 Q 301.344 65.867 301.924 66.321 A 1.568 1.568 0 0 0 301.971 66.356 A 2.271 2.271 0 0 0 302.496 66.621 Q 303.39 66.958 305.264 67.162 A 34.79 34.79 0 0 0 306.063 67.239 L 306.9 70.959 L 297.786 70.68 L 287.742 70.959 L 286.998 67.239 A 92.397 92.397 0 0 0 288.546 67.098 Q 291.628 66.789 292.346 66.449 A 1.225 1.225 0 0 0 292.899 65.892 Q 293.229 65.271 293.229 64.077 L 293.229 42.315 A 14.649 14.649 0 0 0 293.153 40.769 Q 292.927 38.642 292.02 37.665 A 3.691 3.691 0 0 0 290.529 36.712 Q 289.555 36.363 288.207 36.363 Z M 395.529 70.68 L 385.206 70.959 L 384.462 66.867 A 113.781 113.781 0 0 0 386.273 66.66 Q 388.952 66.329 390.165 66.015 A 4.559 4.559 0 0 0 390.833 65.798 A 1.705 1.705 0 0 0 391.713 64.883 Q 391.863 64.545 391.933 64.103 A 5.53 5.53 0 0 0 391.995 63.24 L 391.995 12.183 A 3.975 3.975 0 0 0 391.888 11.229 A 2.353 2.353 0 0 0 390.647 9.626 A 4.712 4.712 0 0 0 389.843 9.317 Q 388.252 8.841 384.834 8.556 L 383.997 4.464 L 395.436 4.743 L 414.687 4.557 A 60.245 60.245 0 0 1 425.503 5.468 Q 431.566 6.576 436.387 9.031 A 30.846 30.846 0 0 1 442.401 13.02 A 27.631 27.631 0 0 1 451.859 30.28 A 40.537 40.537 0 0 1 452.352 36.735 A 36.932 36.932 0 0 1 450.54 48.553 A 30.743 30.743 0 0 1 442.122 61.473 A 33.321 33.321 0 0 1 428.838 68.875 Q 423.698 70.422 417.522 70.821 A 68.538 68.538 0 0 1 413.106 70.959 L 395.529 70.68 Z M 378.138 37.107 L 371.07 35.805 Q 373.302 39.246 373.302 43.524 A 16.459 16.459 0 0 1 372.549 48.618 A 13.301 13.301 0 0 1 368.652 54.545 A 16.252 16.252 0 0 1 357.823 58.679 A 20.774 20.774 0 0 1 357.399 58.683 Q 355.911 58.683 354.377 58.544 A 4.428 4.428 0 0 0 353.975 58.526 Q 353.138 58.526 352.287 58.841 A 6.464 6.464 0 0 0 351.261 59.334 Q 350.333 59.88 349.95 60.554 A 2.015 2.015 0 0 0 349.68 61.566 A 2.508 2.508 0 0 0 350.575 63.467 Q 351.527 64.339 353.493 64.914 Q 355.316 65.37 360.181 65.888 A 224.708 224.708 0 0 0 362.514 66.123 Q 369.303 66.774 371.907 67.89 A 8.669 8.669 0 0 1 377.156 73.957 A 14.249 14.249 0 0 1 377.58 77.562 A 15.155 15.155 0 0 1 373.556 87.852 A 22.21 22.21 0 0 1 371.116 90.21 Q 364.653 95.604 355.353 95.604 Q 348.471 95.604 343.263 92.489 A 10.55 10.55 0 0 1 339.613 88.987 Q 338.359 86.958 338.114 84.289 A 14.594 14.594 0 0 1 338.055 82.956 A 10.405 10.405 0 0 1 338.162 81.411 Q 338.281 80.619 338.534 79.988 A 3.982 3.982 0 0 1 339.403 78.632 Q 340.752 77.283 342.287 76.074 A 94.41 94.41 0 0 1 343.727 74.963 Q 344.469 74.401 345.302 73.79 A 162.097 162.097 0 0 1 345.867 73.377 A 1472.245 1472.245 0 0 0 346.575 72.862 Q 347.983 71.837 348.285 71.61 A 11.296 11.296 0 0 1 344.693 69.28 A 13.425 13.425 0 0 1 344.1 68.681 Q 342.24 66.681 342.24 65.1 A 5.335 5.335 0 0 1 342.302 64.256 Q 342.455 63.304 342.984 62.775 A 19.265 19.265 0 0 1 344.112 61.746 Q 345.447 60.61 347.586 59.072 A 122.962 122.962 0 0 1 349.866 57.474 Q 346.146 55.8 343.635 52.545 A 12.045 12.045 0 0 1 341.13 45.327 A 14.951 14.951 0 0 1 341.124 44.919 A 15.348 15.348 0 0 1 342.277 38.896 A 14.489 14.489 0 0 1 345.774 33.945 Q 350.424 29.574 357.027 29.574 A 24.777 24.777 0 0 1 361.24 29.92 A 20.653 20.653 0 0 1 363.723 30.504 Q 367.815 31.341 371.907 31.341 Q 375.999 31.341 379.533 31.155 A 7.177 7.177 0 0 1 379.51 31.693 Q 379.463 32.308 379.322 33.218 A 44.579 44.579 0 0 1 379.161 34.178 A 14.505 14.505 0 0 1 378.944 35.201 Q 378.616 36.493 378.138 37.107 Z M 0.837 8.463 L 0 4.371 L 11.439 4.65 L 26.784 4.278 A 40.211 40.211 0 0 1 33.991 4.865 Q 46.298 7.119 46.846 18.029 A 20.646 20.646 0 0 1 46.872 19.065 A 15.403 15.403 0 0 1 44.71 27.268 Q 42.857 30.298 39.415 32.494 A 25.497 25.497 0 0 1 35.526 34.503 A 0.268 0.268 0 0 0 35.452 34.512 Q 35.37 34.536 35.348 34.62 A 0.274 0.274 0 0 0 35.34 34.689 A 0.268 0.268 0 0 0 35.349 34.763 Q 35.373 34.845 35.457 34.867 A 0.274 0.274 0 0 0 35.526 34.875 A 18.222 18.222 0 0 1 42.854 37.412 A 24.877 24.877 0 0 1 46.5 40.083 A 15.256 15.256 0 0 1 50.386 45.154 A 14.745 14.745 0 0 1 51.708 51.429 A 22.105 22.105 0 0 1 50.89 57.613 A 16.243 16.243 0 0 1 45.338 65.937 Q 40.578 69.759 32.523 70.725 A 49.039 49.039 0 0 1 26.691 71.052 L 11.532 70.68 L 1.209 70.959 L 0.465 66.867 A 113.781 113.781 0 0 0 2.276 66.66 Q 4.955 66.329 6.168 66.015 A 4.559 4.559 0 0 0 6.836 65.798 A 1.705 1.705 0 0 0 7.716 64.883 Q 7.866 64.545 7.936 64.103 A 5.53 5.53 0 0 0 7.998 63.24 L 7.998 12.09 A 3.975 3.975 0 0 0 7.891 11.136 A 2.353 2.353 0 0 0 6.65 9.533 A 4.712 4.712 0 0 0 5.846 9.224 Q 4.255 8.748 0.837 8.463 Z M 494.016 66.03 L 495.969 66.03 A 3.679 3.679 0 0 0 496.184 66.024 Q 496.481 66.007 496.62 65.937 A 50.206 50.206 0 0 0 496.756 66.779 Q 496.973 68.046 497.156 68.616 A 2.151 2.151 0 0 0 497.271 68.913 Q 496.359 69.369 493.555 70.228 A 126.038 126.038 0 0 1 492.203 70.634 A 51.836 51.836 0 0 1 490.357 71.142 Q 488.576 71.595 487.36 71.734 A 8.612 8.612 0 0 1 486.39 71.796 A 3.982 3.982 0 0 1 485.396 71.681 A 2.46 2.46 0 0 1 483.786 70.448 A 5.361 5.361 0 0 1 483.417 69.584 Q 482.943 68.185 482.67 65.658 A 12.087 12.087 0 0 1 480.851 67.669 Q 479.934 68.489 478.774 69.25 A 22.379 22.379 0 0 1 477.974 69.75 A 15.375 15.375 0 0 1 474.748 71.223 A 12.475 12.475 0 0 1 471.696 71.796 L 471.231 71.796 Q 466.767 71.796 463.559 69.285 A 8.148 8.148 0 0 1 460.493 63.933 A 12.151 12.151 0 0 1 460.35 62.031 Q 460.35 57.831 463.814 55.345 A 11.609 11.609 0 0 1 464.767 54.731 A 19.502 19.502 0 0 1 467.514 53.461 Q 472.215 51.655 481.323 49.921 A 198.704 198.704 0 0 1 482.205 49.755 L 482.205 44.175 Q 482.205 34.588 475.342 34.152 A 10.563 10.563 0 0 0 474.672 34.131 Q 472.068 34.131 469.743 35.433 L 469.743 41.757 A 0.296 0.296 0 0 1 469.608 41.975 Q 469.221 42.286 467.732 42.597 A 23.845 23.845 0 0 1 467.278 42.687 A 67.716 67.716 0 0 1 466.28 42.868 Q 464.935 43.101 464.278 43.143 A 4.063 4.063 0 0 1 464.023 43.152 A 6.303 6.303 0 0 1 462.489 42.966 A 1.755 1.755 0 0 1 462.129 42.401 Q 461.761 41.529 461.746 39.777 A 17.636 17.636 0 0 1 461.745 39.618 A 7.468 7.468 0 0 1 461.991 37.656 A 5.671 5.671 0 0 1 463.233 35.34 Q 464.628 33.48 469.929 31.527 Q 474.411 29.876 477.231 29.621 A 10.845 10.845 0 0 1 478.206 29.574 Q 489.924 29.574 489.924 42.78 L 489.924 61.38 A 11.944 11.944 0 0 0 489.98 62.58 Q 490.178 64.539 491.087 65.193 A 4.314 4.314 0 0 0 492.726 65.902 A 6.162 6.162 0 0 0 494.016 66.03 Z M 77.469 70.959 L 68.169 70.68 L 58.125 70.959 L 57.381 67.239 A 92.397 92.397 0 0 0 58.929 67.098 Q 62.011 66.789 62.729 66.449 A 1.225 1.225 0 0 0 63.282 65.892 Q 63.612 65.271 63.612 64.077 L 63.612 12.927 Q 63.612 9.858 62.543 8.742 Q 61.473 7.626 59.66 7.626 A 55.869 55.869 0 0 0 58.873 7.631 Q 57.901 7.645 57.391 7.696 A 4.684 4.684 0 0 0 57.195 7.719 L 56.358 4.929 A 117.291 117.291 0 0 0 67.442 1.024 A 104.502 104.502 0 0 0 69.843 0 A 2.278 2.278 0 0 1 70.516 0.091 Q 71.255 0.32 71.448 1.124 A 2.757 2.757 0 0 1 71.517 1.767 L 71.517 64.077 A 4.682 4.682 0 0 0 71.581 64.88 Q 71.76 65.909 72.447 66.356 A 2.738 2.738 0 0 0 73.011 66.621 Q 74.14 67.026 76.632 67.239 L 77.469 70.959 Z M 520.428 70.959 L 511.128 70.68 L 501.084 70.959 L 500.34 67.239 A 92.397 92.397 0 0 0 501.888 67.098 Q 504.97 66.789 505.688 66.449 A 1.225 1.225 0 0 0 506.241 65.892 Q 506.571 65.271 506.571 64.077 L 506.571 12.927 Q 506.571 9.858 505.502 8.742 Q 504.432 7.626 502.619 7.626 A 55.869 55.869 0 0 0 501.832 7.631 Q 500.86 7.645 500.35 7.696 A 4.684 4.684 0 0 0 500.154 7.719 L 499.317 4.929 A 117.291 117.291 0 0 0 510.401 1.024 A 104.502 104.502 0 0 0 512.802 0 A 2.278 2.278 0 0 1 513.475 0.091 Q 514.214 0.32 514.407 1.124 A 2.757 2.757 0 0 1 514.476 1.767 L 514.476 64.077 A 4.682 4.682 0 0 0 514.54 64.88 Q 514.719 65.909 515.406 66.356 A 2.738 2.738 0 0 0 515.97 66.621 Q 517.099 67.026 519.591 67.239 L 520.428 70.959 Z M 561.441 48.081 L 534.471 48.081 L 534.471 49.29 A 20.271 20.271 0 0 0 535.547 55.992 A 17.991 17.991 0 0 0 538.284 61.055 A 12.62 12.62 0 0 0 542.567 64.707 Q 545.16 66.03 548.421 66.03 A 15.997 15.997 0 0 0 553.527 65.247 A 13.476 13.476 0 0 0 558.837 61.938 A 1.857 1.857 0 0 1 558.963 61.823 Q 559.092 61.715 559.198 61.679 A 0.317 0.317 0 0 1 559.302 61.659 Q 559.453 61.659 559.665 61.843 A 1.951 1.951 0 0 1 559.767 61.938 L 561.813 64.263 A 25.403 25.403 0 0 1 555.908 69.07 A 20.105 20.105 0 0 1 545.678 71.796 A 23.409 23.409 0 0 1 539.477 71.019 A 16.927 16.927 0 0 1 531.262 66.03 A 19.527 19.527 0 0 1 526.687 57.059 A 28.712 28.712 0 0 1 526.008 50.639 A 25.221 25.221 0 0 1 526.845 43.969 A 18.603 18.603 0 0 1 531.96 35.294 A 21.2 21.2 0 0 1 537.803 31.236 A 18.337 18.337 0 0 1 545.538 29.574 A 20.357 20.357 0 0 1 550.599 30.169 A 14.213 14.213 0 0 1 557.535 34.178 A 15.135 15.135 0 0 1 561.124 40.715 Q 561.759 43.025 561.879 45.769 A 29.743 29.743 0 0 1 561.906 47.058 A 3.398 3.398 0 0 1 561.891 47.393 Q 561.858 47.721 561.754 47.893 A 0.351 0.351 0 0 1 561.441 48.081 Z M 412.362 8.928 L 405.201 8.928 A 18.479 18.479 0 0 0 403.711 8.983 Q 400.458 9.248 400.458 10.788 L 400.458 58.683 A 40.01 40.01 0 0 0 400.467 59.549 Q 400.484 60.358 400.537 60.906 A 7.022 7.022 0 0 0 400.598 61.38 Q 400.737 62.217 401.435 63.38 A 3.386 3.386 0 0 0 402.769 64.626 A 4.914 4.914 0 0 0 403.713 65.007 A 22.865 22.865 0 0 0 406.561 65.632 Q 409.62 66.121 413.971 66.201 A 95.14 95.14 0 0 0 415.71 66.216 Q 425.928 66.216 432.394 61.72 A 21.084 21.084 0 0 0 435.658 58.916 A 23.558 23.558 0 0 0 441.039 49.432 Q 442.587 44.381 442.587 37.898 A 38.462 38.462 0 0 0 441.658 29.187 Q 439.886 21.559 434.729 16.554 A 25.537 25.537 0 0 0 423.806 10.394 Q 418.723 8.928 412.362 8.928 Z M 96.77 70.795 A 24.154 24.154 0 0 0 103.881 71.796 A 26.355 26.355 0 0 0 104.307 71.793 A 20.323 20.323 0 0 0 119.087 65.565 Q 125.178 59.334 125.178 50.174 Q 125.178 41.013 119.273 35.294 A 19.548 19.548 0 0 0 111.356 30.592 A 24.053 24.053 0 0 0 104.206 29.574 A 26.014 26.014 0 0 0 103.496 29.584 A 19.879 19.879 0 0 0 89.047 35.898 Q 83.049 42.222 83.049 51.383 Q 83.049 60.543 88.908 66.17 A 19.422 19.422 0 0 0 96.77 70.795 Z M 145.967 70.795 A 24.154 24.154 0 0 0 153.078 71.796 A 26.355 26.355 0 0 0 153.504 71.793 A 20.323 20.323 0 0 0 168.284 65.565 Q 174.375 59.334 174.375 50.174 Q 174.375 41.013 168.47 35.294 A 19.548 19.548 0 0 0 160.553 30.592 A 24.053 24.053 0 0 0 153.403 29.574 A 26.014 26.014 0 0 0 152.693 29.584 A 19.879 19.879 0 0 0 138.244 35.898 Q 132.246 42.222 132.246 51.383 Q 132.246 60.543 138.105 66.17 A 19.422 19.422 0 0 0 145.967 70.795 Z M 279.744 70.959 L 270.63 70.68 L 260.586 70.959 L 259.842 67.239 A 92.397 92.397 0 0 0 261.39 67.098 Q 264.472 66.789 265.19 66.449 A 1.225 1.225 0 0 0 265.743 65.892 Q 266.073 65.271 266.073 64.077 L 266.073 40.455 A 6.694 6.694 0 0 0 265.842 38.615 Q 265.038 35.805 261.423 35.805 A 21.867 21.867 0 0 0 260.771 35.814 Q 260.174 35.832 259.753 35.885 A 5.894 5.894 0 0 0 259.656 35.898 L 258.819 33.201 Q 263.535 32.04 265.591 31.389 A 16.208 16.208 0 0 0 266.538 31.062 L 272.211 28.83 Q 273.42 28.83 273.699 29.063 Q 273.978 29.295 273.978 30.318 L 273.978 64.077 A 5.211 5.211 0 0 0 274.034 64.869 Q 274.188 65.867 274.768 66.321 A 1.568 1.568 0 0 0 274.815 66.356 A 2.271 2.271 0 0 0 275.34 66.621 Q 276.234 66.958 278.108 67.162 A 34.79 34.79 0 0 0 278.907 67.239 L 279.744 70.959 Z M 91.512 49.43 A 25.089 25.089 0 0 0 92.45 56.414 A 20.999 20.999 0 0 0 95.093 62.171 A 13.202 13.202 0 0 0 97.99 65.378 A 10.713 10.713 0 0 0 104.765 67.611 A 14.003 14.003 0 0 0 108.342 67.182 A 9.334 9.334 0 0 0 113.785 63.426 Q 116.027 60.224 116.553 55.035 A 33.465 33.465 0 0 0 116.715 51.662 A 24.751 24.751 0 0 0 115.929 45.286 A 19.42 19.42 0 0 0 112.856 38.781 A 14.246 14.246 0 0 0 109.811 35.656 A 11.115 11.115 0 0 0 103.044 33.48 A 12.861 12.861 0 0 0 99.517 33.935 A 8.925 8.925 0 0 0 94.302 37.805 Q 92.092 41.23 91.633 46.521 A 33.637 33.637 0 0 0 91.512 49.43 Z M 140.709 49.43 A 25.089 25.089 0 0 0 141.647 56.414 A 20.999 20.999 0 0 0 144.29 62.171 A 13.202 13.202 0 0 0 147.187 65.378 A 10.713 10.713 0 0 0 153.962 67.611 A 14.003 14.003 0 0 0 157.539 67.182 A 9.334 9.334 0 0 0 162.982 63.426 Q 165.224 60.224 165.75 55.035 A 33.465 33.465 0 0 0 165.912 51.662 A 24.751 24.751 0 0 0 165.126 45.286 A 19.42 19.42 0 0 0 162.053 38.781 A 14.246 14.246 0 0 0 159.008 35.656 A 11.115 11.115 0 0 0 152.241 33.48 A 12.861 12.861 0 0 0 148.714 33.935 A 8.925 8.925 0 0 0 143.499 37.805 Q 141.289 41.23 140.83 46.521 A 33.637 33.637 0 0 0 140.709 49.43 Z M 16.461 39.897 L 16.461 60.636 A 6.21 6.21 0 0 0 17.139 63.631 Q 18.525 66.193 22.742 66.727 A 19.292 19.292 0 0 0 25.156 66.867 A 29.451 29.451 0 0 0 29.601 66.556 Q 34.897 65.745 37.619 62.822 Q 41.385 58.776 41.385 53.01 A 20.578 20.578 0 0 0 41.023 49.005 Q 40.063 44.173 36.549 41.943 A 18.154 18.154 0 0 0 31.39 39.753 Q 29.086 39.149 26.366 38.96 A 36.948 36.948 0 0 0 23.808 38.874 L 17.391 38.874 A 1.206 1.206 0 0 0 17.007 38.93 Q 16.471 39.11 16.461 39.868 A 2.202 2.202 0 0 0 16.461 39.897 Z M 16.461 10.23 L 16.461 33.573 A 1.356 1.356 0 0 0 16.516 33.975 Q 16.652 34.414 17.127 34.548 A 1.538 1.538 0 0 0 17.391 34.596 L 22.785 34.596 Q 27.722 34.596 30.981 32.826 A 10.804 10.804 0 0 0 33.48 30.969 A 11.977 11.977 0 0 0 36.659 25.112 A 18.022 18.022 0 0 0 37.107 20.972 A 17.939 17.939 0 0 0 36.791 17.488 Q 36.044 13.718 33.527 11.625 A 12.34 12.34 0 0 0 28.594 9.179 Q 26.505 8.649 23.994 8.649 Q 19.018 8.649 17.65 9.007 A 1.426 1.426 0 0 0 17.251 9.161 A 2.932 2.932 0 0 0 16.91 9.415 Q 16.53 9.749 16.471 10.102 A 0.786 0.786 0 0 0 16.461 10.23 Z M 357.725 90.954 A 15.96 15.96 0 0 0 361.539 90.521 A 11.555 11.555 0 0 0 366.327 88.118 A 9.573 9.573 0 0 0 368.73 85.142 A 9.028 9.028 0 0 0 369.675 81.003 A 7.477 7.477 0 0 0 369.172 78.196 Q 368.29 75.999 365.862 74.726 Q 362.523 72.975 355.902 72.757 A 59.249 59.249 0 0 0 353.958 72.726 A 8.195 8.195 0 0 0 352.269 72.892 A 5.925 5.925 0 0 0 350.331 73.656 Q 348.843 74.586 348.099 75.144 A 3.438 3.438 0 0 0 347.666 75.539 Q 347.23 76.001 346.739 76.77 A 16.315 16.315 0 0 0 346.425 77.283 A 6.748 6.748 0 0 0 345.54 80.037 A 8.385 8.385 0 0 0 345.495 80.91 A 8.796 8.796 0 0 0 348.359 87.518 A 11.762 11.762 0 0 0 348.983 88.071 A 12.42 12.42 0 0 0 355.058 90.751 A 16.866 16.866 0 0 0 357.724 90.954 Z M 357.957 54.591 A 10.276 10.276 0 0 0 361.432 54.053 Q 366.234 52.331 366.234 45.105 A 18.52 18.52 0 0 0 365.929 41.642 Q 365.368 38.693 363.77 36.642 Q 361.305 33.48 357.027 33.48 A 12.116 12.116 0 0 0 354.435 33.741 Q 352.762 34.107 351.515 34.989 A 6.952 6.952 0 0 0 350.471 35.898 A 7.503 7.503 0 0 0 348.873 38.605 Q 348.469 39.76 348.304 41.179 A 17.986 17.986 0 0 0 348.192 43.245 Q 348.192 48.174 350.982 51.383 A 9.314 9.314 0 0 0 354.121 53.789 A 9.069 9.069 0 0 0 357.957 54.591 Z M 534.75 43.71 L 552.606 43.71 A 19.414 19.414 0 0 0 552.28 39.976 Q 551.113 34.051 545.77 33.53 A 11.017 11.017 0 0 0 544.701 33.48 A 9.7 9.7 0 0 0 541.369 34.031 A 8.424 8.424 0 0 0 537.912 36.41 A 12.653 12.653 0 0 0 535.092 41.867 A 16.157 16.157 0 0 0 534.75 43.71 Z M 482.205 63.426 L 482.205 53.01 A 84.76 84.76 0 0 0 478.747 53.682 Q 473.575 54.809 471.51 56.126 Q 468.813 57.846 468.813 61.008 A 7.946 7.946 0 0 0 469.084 62.66 Q 469.551 64.313 470.766 65.24 A 6.488 6.488 0 0 0 473.665 66.469 A 8.781 8.781 0 0 0 475.137 66.588 Q 479.88 66.588 482.205 63.426 Z M 268.189 17.58 A 6.172 6.172 0 0 0 270.072 17.856 A 6.369 6.369 0 0 0 270.217 17.855 A 5.295 5.295 0 0 0 274.025 16.182 Q 275.652 14.508 275.652 12.137 A 6.528 6.528 0 0 0 275.593 11.248 A 4.604 4.604 0 0 0 274.117 8.37 A 5.161 5.161 0 0 0 272.048 7.219 A 6.604 6.604 0 0 0 270.211 6.975 A 6.591 6.591 0 0 0 270.027 6.978 A 5.186 5.186 0 0 0 266.259 8.649 Q 264.678 10.323 264.678 12.648 A 6.575 6.575 0 0 0 264.702 13.216 A 4.799 4.799 0 0 0 266.212 16.415 A 5.128 5.128 0 0 0 268.189 17.58 Z" vector-effect="non-scaling-stroke"/></g></svg>