<svg width="479.41356201171874px" height="110px" xmlns="http://www.w3.org/2000/svg" viewBox="10.29321899414063 20 479.41356201171874 110" style="background: rgba(0, 0, 0, 0);" preserveAspectRatio="xMidYMid"><defs><filter id="editing-metal-beveled"><feGaussianBlur stdDeviation="4" in="SourceAlpha" result="blur"></feGaussianBlur><feSpecularLighting surfaceScale="5" specularConstant="0.8" specularExponent="7.5" lighting-color="#ffffff" in="blur" result="specular"><fePointLight x="-250" y="-50" z="300"></fePointLight></feSpecularLighting><feComposite operator="in" in="specular" in2="SourceAlpha" result="comp"></feComposite><feComposite in="SourceGraphic" in2="comp" operator="arithmetic" k1="0" k2="1" k3="1" k4="0"></feComposite></filter></defs><g filter="url(#editing-metal-beveled)"><g transform="translate(80.29795479774475, 93.72500038146973)"><path d="M2.09-27.17L2.09-28.55L15.23-28.93L15.23-28.93Q20.63-28.93 22.44-27.61L22.44-27.61L22.44-27.61Q24.20-26.40 24.20-23.90L24.20-23.90L24.20-23.90Q24.20-21.39 22.41-19.39L22.41-19.39L22.41-19.39Q20.63-17.38 18.04-16.39L18.04-16.39L18.04-16.17L18.04-16.17Q21.34-16.17 23.38-14.77L23.38-14.77L23.38-14.77Q25.41-13.37 25.41-10.20L25.41-10.20L25.41-10.20Q25.41-7.04 21.89-3.71L21.89-3.71L21.89-3.71Q18.37-0.39 14.69 0.66L14.69 0.66L14.69 0.66Q13.37 0.66 11.08 0.11L11.08 0.11L11.08 0.11Q8.80-0.44 7.37-0.99L7.37-0.99L7.37-0.99Q6.76-0.28 6.27 1.04L6.27 1.04L5.12 0.77L5.12 0.77Q6.16-4.13 6.16-13.06L6.16-13.06L6.16-13.06Q6.16-22 5.67-26.46L5.67-26.46L5.67-26.46Q3.79-27.17 2.09-27.17L2.09-27.17ZM12.43-16.94L12.93-16.94L12.93-16.94Q16.34-16.94 17.88-17.88L17.88-17.88L17.88-17.88Q19.25-19.58 19.25-22.22L19.25-22.22L19.25-22.22Q19.25-27.00 14.03-27.00L14.03-27.00L14.03-27.00Q12.21-27.00 10.67-26.40L10.67-26.40L10.67-26.40Q10.29-22.66 10.29-14.90L10.29-14.90L10.29-14.90Q10.29-7.15 10.51-4.07L10.51-4.07L10.51-4.07Q12.76-2.86 15.48-2.86L15.48-2.86L15.48-2.86Q18.21-2.86 19.64-3.90L19.64-3.90L19.64-3.90Q20.57-5.78 20.57-8.42L20.57-8.42L20.57-8.42Q20.57-12.04 18.43-13.53L18.43-13.53L18.43-13.53Q16.28-15.02 12.21-15.02L12.21-15.02L12.43-16.94ZM51.59-0.49L51.31 0.60L51.31 0.60Q47.74 0 41.61 0L41.61 0L41.61 0Q35.48 0 31.35 0.55L31.35 0.55L31.19-0.82L31.19-0.82Q32.73-1.43 34.70-1.81L34.70-1.81L34.70-1.81Q35.26-5.12 35.26-13.04L35.26-13.04L35.26-15.62L35.26-15.62Q35.26-22.44 34.70-26.84L34.70-26.84L34.70-26.84Q32.89-27.11 31.24-27.66L31.24-27.66L31.46-29.09L31.46-29.09Q34.27-28.66 38.06-28.66L38.06-28.66L38.06-28.66Q41.86-28.66 44.55-29.09L44.55-29.09L44.72-27.72L44.72-27.72Q42.24-27.11 39.82-26.84L39.82-26.84L39.82-26.84Q39.38-23.87 39.38-14.60L39.38-14.60L39.38-14.60Q39.38-5.33 39.82-2.25L39.82-2.25L39.82-2.25Q41.14-2.04 43.56-2.04L43.56-2.04L43.56-2.04Q45.98-2.04 47.91-2.97L47.91-2.97L47.91-2.97Q48.67-4.84 48.67-7.37L48.67-7.37L50.05-7.37L50.05-7.37Q50.27-3.14 51.59-0.49L51.59-0.49ZM65.67 0.66L65.67 0.66Q60.22 0.66 56.87-2.78L56.87-2.78L56.87-2.78Q53.52-6.21 53.52-11.99L53.52-11.99L53.52-11.99Q53.52-17.77 57.03-22.82L57.03-22.82L57.03-22.82Q60.55-27.89 66.22-29.32L66.22-29.32L66.22-29.32Q71.88-29.32 74.85-26.10L74.85-26.10L74.85-26.10Q77.83-22.88 77.83-16.94L77.83-16.94L77.83-16.94Q77.83-11 74.61-6.21L74.61-6.21L74.61-6.21Q71.39-1.43 65.67 0.66L65.67 0.66ZM64.73-25.96L64.73-25.96L64.73-25.96Q62.26-25.96 60.45-24.59L60.45-24.59L60.45-24.59Q58.19-20.73 58.19-14.90L58.19-14.90L58.19-14.90Q58.19-8.20 61.93-4.62L61.93-4.62L61.93-4.62Q63.91-2.69 66.61-2.69L66.61-2.69L66.61-2.69Q69.30-2.69 70.95-4.13L70.95-4.13L70.95-4.13Q73.15-7.97 73.15-13.53L73.15-13.53L73.15-13.53Q73.15-19.09 71.17-22.52L71.17-22.52L71.17-22.52Q69.19-25.96 64.73-25.96ZM94.60 0.66L94.60 0.66Q89.15 0.66 85.80-2.78L85.80-2.78L85.80-2.78Q82.44-6.21 82.44-11.99L82.44-11.99L82.44-11.99Q82.44-17.77 85.96-22.82L85.96-22.82L85.96-22.82Q89.48-27.89 95.15-29.32L95.15-29.32L95.15-29.32Q100.81-29.32 103.78-26.10L103.78-26.10L103.78-26.10Q106.75-22.88 106.75-16.94L106.75-16.94L106.75-16.94Q106.75-11 103.54-6.21L103.54-6.21L103.54-6.21Q100.32-1.43 94.60 0.66L94.60 0.66ZM93.66-25.96L93.66-25.96L93.66-25.96Q91.19-25.96 89.37-24.59L89.37-24.59L89.37-24.59Q87.12-20.73 87.12-14.90L87.12-14.90L87.12-14.90Q87.12-8.20 90.86-4.62L90.86-4.62L90.86-4.62Q92.84-2.69 95.53-2.69L95.53-2.69L95.53-2.69Q98.23-2.69 99.88-4.13L99.88-4.13L99.88-4.13Q102.08-7.97 102.08-13.53L102.08-13.53L102.08-13.53Q102.08-19.09 100.10-22.52L100.10-22.52L100.10-22.52Q98.12-25.96 93.66-25.96ZM125.67-1.65L125.67-3.08L125.67-3.08Q125.67-6.49 123.97-13.28L123.97-13.28L123.97-13.28Q122.27-20.07 120.17-26.46L120.17-26.46L119.95-26.40L118.58-16.17L118.58-16.17Q117.70-9.85 117.70-4.79L117.70-4.79L117.70-4.79Q117.70-1.71 119.63-0.66L119.63-0.66L119.41 0.28L119.41 0.28Q117.75 0 115.09 0L115.09 0L115.09 0Q112.42 0 109.23 0.44L109.23 0.44L109.01-0.99L109.01-0.99Q110.88-1.59 112.53-1.87L112.53-1.87L117.64-26.95L117.64-26.95Q114.78-27.45 113.41-27.83L113.41-27.83L113.58-29.26L113.58-29.26Q117.53-28.66 120.92-28.66L120.92-28.66L120.92-28.66Q124.30-28.66 126.17-29.04L126.17-29.04L126.28-28.11L126.28-28.11Q124.80-27.72 124.80-26.84L124.80-26.84L124.80-26.84Q124.80-25.63 128.20-12.87L128.20-12.87L129.41-8.74L129.80-8.86L129.80-8.86Q129.80-10.29 134.81-26.79L134.81-26.79L134.81-26.79Q134.81-27.72 133.32-28.11L133.32-28.11L133.43-29.04L133.43-29.04Q135.30-28.66 138.74-28.66L138.74-28.66L138.74-28.66Q142.18-28.66 146.08-29.26L146.08-29.26L146.25-27.83L146.25-27.83Q144.76-27.45 142.45-27.00L142.45-27.00L142.45-27.00Q142.28-25.68 142.28-23.13L142.28-23.13L142.28-23.13Q142.28-20.57 143-12.65L143-12.65L143-12.65Q143.72-4.73 144.32-1.76L144.32-1.76L144.32-1.76Q146.35-1.49 148.50-0.99L148.50-0.99L148.34 0.39L148.34 0.39Q145.47 0 141.98 0L141.98 0L141.98 0Q138.49 0 135.69 0.44L135.69 0.44L135.47-0.99L135.47-0.99Q137.28-1.54 139.37-1.81L139.37-1.81L139.37-1.81Q139.20-14.79 137.61-26.29L137.61-26.29L137.44-26.29L137.44-26.29Q131.78-9.57 131.40-4.62L131.40-4.62L131.40-4.62Q130.24-4.24 128.70-3.22L128.70-3.22L128.70-3.22Q127.16-2.20 126.33-1.21L126.33-1.21L125.67-1.65ZM159.88-26.84L159.88-26.84L159.88-26.84Q159.44-23.87 159.44-14.69L159.44-14.69L159.44-14.69Q159.44-5.50 159.94-1.81L159.94-1.81L159.94-1.81Q162.41-1.54 164.50-0.99L164.50-0.99L164.34 0.39L164.34 0.39Q161.48 0 157.93 0L157.93 0L157.93 0Q154.38 0 151.58 0.44L151.58 0.44L151.36-0.99L151.36-0.99Q152.90-1.49 154.82-1.81L154.82-1.81L154.82-1.81Q155.32-5.78 155.32-13.04L155.32-13.04L155.32-15.62L155.32-15.62Q155.32-22.88 154.77-26.84L154.77-26.84L154.77-26.84Q152.84-27.17 151.30-27.66L151.30-27.66L151.52-29.09L151.52-29.09Q154.33-28.66 157.88-28.66L157.88-28.66L157.88-28.66Q161.42-28.66 164.28-29.04L164.28-29.04L164.45-27.66L164.45-27.66Q162.36-27.11 159.88-26.84ZM181.66-0.99L181.50 0.39L181.50 0.39Q178.64 0 175.09 0L175.09 0L175.09 0Q171.54 0 168.74 0.44L168.74 0.44L168.52-0.99L168.52-0.99Q170.28-1.54 171.82-1.81L171.82-1.81L171.82-1.81Q172.31-6.11 172.31-13.04L172.31-13.04L172.31-15.62L172.31-15.62Q172.31-22.99 171.76-26.95L171.76-26.95L171.76-26.95Q170.28-27.11 168.19-27.83L168.19-27.83L168.35-29.26L168.35-29.26Q171.49-28.66 174.93-28.66L174.93-28.66L174.93-28.66Q178.37-28.66 179.85-29.04L179.85-29.04L179.96-28.11L179.96-28.11Q178.47-27.72 178.47-26.84L178.47-26.84L178.47-26.84Q178.47-26.18 179.77-24.06L179.77-24.06L179.77-24.06Q181.06-21.95 182.27-19.96L182.27-19.96L182.27-19.96Q185.90-14.19 190.85-5.78L190.85-5.78L191.01-5.88L191.01-12.60L191.01-12.60Q191.01-19.96 190.25-23.68L190.25-23.68L190.25-23.68Q189.47-27.39 187.60-28.00L187.60-28.00L187.72-28.93L187.72-28.93Q189.14-28.66 192.00-28.66L192.00-28.66L192.00-28.66Q194.87-28.66 197.89-29.26L197.89-29.26L198.06-27.83L198.06-27.83Q195.80-27.11 194.26-26.95L194.26-26.95L194.26-26.95Q193.71-22.55 193.71-15.62L193.71-15.62L193.71-13.04L193.71-13.04Q193.71-4.67 194.26-1.71L194.26-1.71L194.26-1.71Q196.57-1.32 197.94-0.82L197.94-0.82L197.78 0.60L197.78 0.60Q195.03 0 192.61 0L192.61 0L192.61 0Q190.19 0 188.87 0.22L188.87 0.22L188.87 0.22Q188.87-0.99 187.19-3.85L187.19-3.85L187.19-3.85Q185.51-6.71 184.14-8.91L184.14-8.91L184.14-8.91Q179.69-16.11 175.39-23.54L175.39-23.54L175.17-23.43L175.17-16.06L175.17-16.06Q175.17-5.12 176.82-1.81L176.82-1.81L176.82-1.81Q179.30-1.54 181.66-0.99L181.66-0.99ZM214.94-3.19L214.94-3.19L214.94-3.19Q217.30-3.19 219.61-4.57L219.61-4.57L219.34-10.45L219.34-10.45Q217.80-10.95 215.60-11.33L215.60-11.33L215.76-12.48L215.76-12.48Q217.08-12.38 217.69-12.38L217.69-12.38L217.69-12.38Q221.48-12.38 224.56-14.41L224.56-14.41L225.11-13.42L225.11-13.42Q224.45-12.81 223.90-12.15L223.90-12.15L223.90-12.15Q223.13-4.67 222.91 0.17L222.91 0.17L221.76 0.17L221.76 0.17Q221.32-1.87 220.44-3.19L220.44-3.19L220.44-3.19Q217.25-0.39 214.00 0.66L214.00 0.66L214.00 0.66Q208.67 0.66 205.64-2.72L205.64-2.72L205.64-2.72Q202.62-6.11 202.62-11.85L202.62-11.85L202.62-11.85Q202.62-17.60 206.19-22.66L206.19-22.66L206.19-22.66Q209.77-27.72 215.32-29.32L215.32-29.32L215.32-29.32Q219.34-29.32 224.40-28.49L224.40-28.49L224.34-27.28L224.34-27.28Q223.30-27.28 222.36-26.89L222.36-26.89L222.36-26.89Q221.32-24.42 220.99-21.01L220.99-21.01L219.61-21.01L219.61-21.01Q219.17-22.88 219.17-24.86L219.17-24.86L219.17-24.86Q217.08-25.91 214.22-25.91L214.22-25.91L214.22-25.91Q211.36-25.91 209.49-24.36L209.49-24.36L209.49-24.36Q207.29-20.35 207.29-14.88L207.29-14.88L207.29-14.88Q207.29-9.40 208.92-6.30L208.92-6.30L208.92-6.30Q210.54-3.19 214.94-3.19ZM233.97 1.21L232.81 0.94L232.81 0.94Q234.13-5.06 234.13-16.31L234.13-16.31L234.13-16.31Q234.13-27.55 233.64-32.89L233.64-32.89L233.64-32.89Q227.53-32.78 225.83-31.13L225.83-31.13L225.83-31.13Q225.44-30.36 225.44-28.71L225.44-28.71L225.44-28.71Q225.44-27.06 225.99-26.46L225.99-26.46L225.94-26.07L225.94-26.07Q224.56-25.25 223.19-23.76L223.19-23.76L223.19-23.76Q222.53-23.82 222.12-24.31L222.12-24.31L222.12-24.31Q221.70-24.80 221.70-25.46L221.70-25.46L221.70-25.46Q221.70-28.00 224.59-31.46L224.59-31.46L224.59-31.46Q227.48-34.92 230.12-36.24L230.12-36.24L230.12-36.24Q234.79-35.80 243.98-35.80L243.98-35.80L243.98-35.80Q259.00-35.80 259.00-21.23L259.00-21.23L259.00-21.23Q259.00-13.59 254.98-7.37L254.98-7.37L254.98-7.37Q250.96-1.16 244.09 0.82L244.09 0.82L244.09 0.82Q240.13 0.82 235.23-1.26L235.23-1.26L235.23-1.26Q234.30 0.17 233.97 1.21L233.97 1.21ZM243.10-33.22L243.10-33.22L243.10-33.22Q240.57-33.22 238.86-32.95L238.86-32.95L238.86-32.95Q238.37-27.77 238.37-18.64L238.37-18.64L238.37-18.64Q238.37-9.52 238.64-4.67L238.64-4.67L238.64-4.67Q241.61-3.14 245.41-3.14L245.41-3.14L245.41-3.14Q249.20-3.14 251.29-5.00L251.29-5.00L251.29-5.00Q254.10-10.12 254.10-17.66L254.10-17.66L254.10-17.66Q254.10-25.19 251.76-29.21L251.76-29.21L251.76-29.21Q249.42-33.22 243.10-33.22ZM267.08-27.83L267.25-29.26L267.25-29.26Q272.42-28.66 277.69-28.66L277.69-28.66L277.69-28.66Q282.98-28.66 288.09-29.26L288.09-29.26L288.31-27.83L288.31-27.83Q286.66-27.17 284.90-26.84L284.90-26.84L284.90-26.84Q284.30-22.33 284.30-14.30L284.30-14.30L284.30-14.30Q284.30-6.27 284.90-1.76L284.90-1.76L284.90-1.76Q286-1.59 288.97-0.94L288.97-0.94L288.75 0.44L288.75 0.44Q286.11 0 281.99 0L281.99 0L281.99 0Q277.86 0 275.66 0.44L275.66 0.44L275.44-0.99L275.44-0.99Q277.31-1.59 279.68-1.87L279.68-1.87L279.68-1.87Q280.00-5.06 280.17-10.72L280.17-10.72L280.17-10.72Q277.59-11 275-11L275-11L275-11Q272.42-11 270.49-10.72L270.49-10.72L270.49-10.72Q269.39-6.21 269.39-4.46L269.39-4.46L269.39-4.46Q269.39-1.76 271.31-0.66L271.31-0.66L271.10 0.28L271.10 0.28Q269.83 0 266.31 0L266.31 0L266.31 0Q262.79 0 260.75 0.44L260.75 0.44L260.54-0.99L260.54-0.99Q261.86-1.49 264.17-1.87L264.17-1.87L271.31-26.95L271.31-26.95Q268.89-27.34 267.08-27.83L267.08-27.83ZM274.18-26.46L270.93-13.31L270.93-13.31Q273.07-12.98 275.69-12.98L275.69-12.98L275.69-12.98Q278.30-12.98 280.17-13.31L280.17-13.31L280.17-13.31Q280.17-23.48 279.73-26.46L279.73-26.46L279.73-26.46Q277.86-26.57 276.95-26.57L276.95-26.57L276.95-26.57Q276.05-26.57 274.18-26.46L274.18-26.46ZM313.50-0.49L313.23 0.60L313.23 0.60Q309.65 0 303.52 0L303.52 0L303.52 0Q297.38 0 293.26 0.55L293.26 0.55L293.10-0.82L293.10-0.82Q294.63-1.43 296.62-1.81L296.62-1.81L296.62-1.81Q297.17-5.12 297.17-13.04L297.17-13.04L297.17-15.62L297.17-15.62Q297.17-22.44 296.62-26.84L296.62-26.84L296.62-26.84Q294.80-27.11 293.15-27.66L293.15-27.66L293.37-29.09L293.37-29.09Q296.18-28.66 299.97-28.66L299.97-28.66L299.97-28.66Q303.77-28.66 306.46-29.09L306.46-29.09L306.63-27.72L306.63-27.72Q304.15-27.11 301.73-26.84L301.73-26.84L301.73-26.84Q301.29-23.87 301.29-14.60L301.29-14.60L301.29-14.60Q301.29-5.33 301.73-2.25L301.73-2.25L301.73-2.25Q303.05-2.04 305.47-2.04L305.47-2.04L305.47-2.04Q307.89-2.04 309.81-2.97L309.81-2.97L309.81-2.97Q310.59-4.84 310.59-7.37L310.59-7.37L311.96-7.37L311.96-7.37Q312.18-3.14 313.50-0.49L313.50-0.49ZM320.32-13.59L320.32-13.59Q320.49-8.69 322.13-5.94L322.13-5.94L322.13-5.94Q323.79-3.19 327.75-3.19L327.75-3.19L327.75-3.19Q331.70-3.19 335.06-6.54L335.06-6.54L335.83-5.78L335.83-5.78Q332.14-1.10 326.98 0.66L326.98 0.66L326.98 0.66Q321.64 0.66 318.62-2.72L318.62-2.72L318.62-2.72Q315.59-6.11 315.59-11.85L315.59-11.85L315.59-11.85Q315.59-17.60 319.17-22.66L319.17-22.66L319.17-22.66Q322.74-27.72 328.30-29.32L328.30-29.32L328.30-29.32Q332.31-29.32 337.37-28.49L337.37-28.49L337.31-27.28L337.31-27.28Q336.27-27.28 335.34-26.89L335.34-26.89L335.34-26.89Q334.29-24.42 333.96-21.01L333.96-21.01L332.59-21.01L332.59-21.01Q332.14-22.88 332.14-24.86L332.14-24.86L332.14-24.86Q330.06-25.91 327.19-25.91L327.19-25.91L327.19-25.91Q324.34-25.91 322.47-24.36L322.47-24.36L322.47-24.36Q320.60-20.96 320.32-16.23L320.32-16.23L320.32-16.23Q322.63-15.84 325.27-15.84L325.27-15.84L325.27-15.84Q329.84-15.84 330.77-17.77L330.77-17.77L331.93-17.60L331.93-17.60Q331.43-15.95 331.43-14.36L331.43-14.36L331.43-14.36Q331.43-12.76 331.81-10.45L331.81-10.45L330.50-10.23L330.50-10.23Q329.89-11.88 329.62-13.64L329.62-13.64L329.62-13.64Q327.42-13.86 325.24-13.86L325.24-13.86L325.24-13.86Q323.07-13.86 320.32-13.59L320.32-13.59Z" fill="#444"></path></g></g><style>text {
  font-size: 64px;
  font-family: Arial Black;
  dominant-baseline: central;
  text-anchor: middle;
}</style></svg>